<svg aria-labelledby="uniqueTitleID uniqueDescID" role="img" version="1.1" viewBox="0 0 45.666 78.598" xmlns="http://www.w3.org/2000/svg">
 <title id="uniqueTitleID">Squared Circle Security Logotype</title>
 <desc id="uniqueDescID">The squared circle security logo in vertical format, showing a scircle becoming a square in 2 dimensions with a depth in grey-scales</desc>
 <g transform="matrix(1.729 0 0 1.729 -25.355 55.737)" fill="#cfcfcf">
  <path transform="matrix(.0030546 0 0 .0030546 -38.505 34.097)" d="m17482-8091q0 119.7 59.848 221.26 61.662 101.56 163.22 161.41 103.37 59.848 223.07 59.848 123.32 0 223.07-48.967t155.97-136.02q58.034-87.052 59.848-195.87h65.289q0 125.14-67.103 228.51-65.289 101.56-181.36 161.41-114.26 58.035-255.72 58.035-137.83 0-255.72-68.916t-186.8-184.99q-68.916-117.88-68.916-255.72v-297.43q0-137.83 67.103-253.9 68.916-117.88 184.98-186.8 117.88-68.916 255.72-68.916 139.65 0 253.9 59.848 116.07 58.035 183.17 161.41 67.103 101.56 67.103 226.7h-65.289q-1.814-108.81-59.849-195.87-58.034-87.052-157.78-136.02-97.934-48.967-221.26-48.967-119.7 0-221.26 59.848t-161.41 161.41-59.848 221.26z"/>
  <path transform="matrix(.0030546 0 0 .0030546 -38.505 34.097)" d="m19667-8870.8v67.102h-377.22v1128h377.22v67.102h-817.92v-67.102h375.41v-1128h-375.41v-67.102z"/>
  <path transform="matrix(.0030546 0 0 .0030546 -38.505 34.097)" d="m20873-8829.1q108.82 50.78 170.48 150.53 63.476 99.747 63.476 221.26 0 141.46-87.052 253.9-85.239 110.63-219.44 146.9l321 447.95h-79.797l-310.12-435.26-58.034 1.8136h-455.21v433.45h-67.103v-1262.3h480.6q79.798 0 136.02 10.882 58.034 9.0679 105.19 30.831zm-181.36 719.99q94.307 0 174.1-47.153 79.798-47.153 126.95-126.95t47.153-174.1q0-105.19-56.221-190.43-54.407-85.238-152.34-126.95-70.73-29.017-199.49-29.017h-413.5v694.6z"/>
  <path transform="matrix(.0030546 0 0 .0030546 -38.505 34.097)" d="m21508-8091q0 119.7 59.848 221.26 61.662 101.56 163.22 161.41 103.37 59.848 223.07 59.848 123.32 0 223.07-48.967t155.97-136.02q58.034-87.052 59.848-195.87h65.289q0 125.14-67.103 228.51-65.289 101.56-181.36 161.41-114.26 58.035-255.72 58.035-137.83 0-255.72-68.916t-186.8-184.99q-68.916-117.88-68.916-255.72v-297.43q0-137.83 67.103-253.9 68.916-117.88 184.98-186.8 117.88-68.916 255.72-68.916 139.65 0 253.9 59.848 116.07 58.035 183.17 161.41 67.103 101.56 67.103 226.7h-65.289q-1.814-108.81-59.849-195.87-58.034-87.052-157.78-136.02-97.934-48.967-221.26-48.967-119.7 0-221.26 59.848t-161.41 161.41-59.848 221.26z"/>
  <path transform="matrix(.0030546 0 0 .0030546 -38.505 34.097)" d="m22893-7608.6v-1262.3h67.103v1195.2h879.59v67.102z"/>
  <path transform="matrix(.0030546 0 0 .0030546 -38.505 34.097)" d="m24190-8870.8h888.66v67.102h-821.55v511.43h714.55v67.102h-714.55v549.52h821.55v67.102h-888.66z"/>
  <g transform="matrix(.0033951 0 0 .0033951 -47.177 37.222)" shape-rendering="auto">
   <path d="m25987-8377.6v43.617h-509.25v-43.617l176.82-194.51 160.32-174.47 14.146-15.325c31.435-33.007 55.798-62.871 73.087-89.591 17.29-27.506 25.935-56.977 25.935-88.412 0-35.365-9.038-67.586-27.113-96.664-17.29-29.078-41.653-51.868-73.088-68.372-30.649-16.504-64.835-24.755-102.56-24.755-36.151 0-69.944 9.0377-101.38 27.113-30.649 18.075-55.012 42.831-73.087 74.266-18.075 30.65-27.113 64.443-27.113 101.38h-43.617c0-44.796 11.002-85.662 33.007-122.6 22.005-37.722 51.475-67.586 88.412-89.591 37.723-22.005 78.982-33.007 123.78-33.007 46.367 0 88.019 10.216 124.96 30.65 37.723 19.647 67.193 47.153 88.412 82.518 22.005 35.365 33.007 75.052 33.007 119.06 0 39.294-9.823 74.266-29.47 104.92s-46.761 64.836-81.34 102.56l-14.146 15.325-310.03 339.5z" baseline-shift="super" color="#000000" color-rendering="auto" dominant-baseline="auto" image-rendering="auto" solid-color="#000000" stop-color="#000000"/>
   <path transform="translate(-1524,-6571.8)" d="m27249-2607.8c-46.023 0-88.717 11.374-127.56 34.029l-0.03 0.016-0.03 0.019c-37.974 22.622-68.416 53.471-91.018 92.195l-0.01 0.02c-22.679 38.077-34.051 80.4-34.051 126.42v7.5h58.617v-7.5c0-35.713 8.666-68.054 26.072-97.568l0.02-0.035 0.02-0.037c17.463-30.37 40.807-54.083 70.352-71.518 30.35-17.445 62.723-26.1 97.613-26.1 36.629 0 69.484 7.9648 99.002 23.859l0.03 0.017 0.04 0.02c30.332 15.924 53.538 37.667 70.127 65.564l0.08 0.124c17.356 27.92 25.984 58.618 25.984 92.705 0 30.046-8.175 57.978-24.764 84.383-16.927 26.151-40.995 55.693-72.189 88.447l-0.04 0.043-14.192 15.373-160.34 174.49-178.79 196.67v54.016h524.25v-58.617h-440.8l298.55-326.93 14.14-15.32 0.01-0.01c34.785-37.947 62.153-72.422 82.125-103.58 20.432-31.875 30.656-68.419 30.656-108.96 0-45.234-11.386-86.426-34.103-122.96-21.898-36.481-52.488-65.014-91.291-85.236-38.074-21.038-81.055-31.531-128.48-31.531z" baseline-shift="super" color="#000000" color-rendering="auto" dominant-baseline="auto" image-rendering="auto" solid-color="#000000" stop-color="#000000"/>
  </g>
 </g>
 <g transform="matrix(3.9464 0 0 3.9464 -39.462 -39.464)">
  <path d="m10.005 15.693a5.7754 5.7754 0 0 0-0.0011 0.08268 5.7754 5.7754 0 0 1 0.0011-0.08268zm11.55 0.08268a5.7754 5.7754 0 0 1 0 0.0011l5.29e-4 -5.29e-4zm0 0.0011a5.7754 5.7754 0 0 1-2.5993 4.823l2.5962 1.726 0.0036-0.0026-5.29e-4 -5.29e-4zm-11.551-5.69e-4v6.5469h5.29e-4l2.5962-1.726a5.7754 5.7754 0 0 1-2.5962-4.8209z" fill="#9f9f9f" fill-opacity=".99608" stroke-width=".0063248"/>
  <path d="m15.776 18.485-3.1755 2.1115a5.7754 5.7754 0 0 0 3.1791 0.95395 5.7754 5.7754 0 0 0 3.1755-0.95136z" fill="#b7b7b7" stop-color="#000000" stroke-width=".0060734"/>
  <path d="m12.6 20.597-2.6004 1.7286 5.7759 3.8401 5.7754-3.8401-2.5962-1.726a5.7754 5.7754 0 0 1-3.1755 0.95136 5.7754 5.7754 0 0 1-3.1791-0.95395z" fill="#6f6f6f" stop-color="#000000" stroke-width=".0060734"/>
  <path d="m15.751 10a5.7754 5.7754 0 0 0-5.7464 5.7754 5.7754 5.7754 0 0 0 2.5962 4.8214l3.1755-2.1115 3.1791 2.1141a5.7754 5.7754 0 0 0 2.5998-4.824 5.7754 5.7754 0 0 0-5.7754-5.7754 5.7754 5.7754 0 0 0-0.02894 0z" fill="#cfcfcf" stop-color="#000000" stroke-width=".0063248"/>
 </g>
 <g transform="matrix(1.002 0 0 1.002 -50.919 -23.112)" fill="none" stroke-width=".16896" aria-label="squared circle security">
  <path d="m51.627 100.52q-0.22979-0.046-0.37577-0.10002-0.14328-0.0568-0.22709-0.15139-0.0811-0.0973-0.0811-0.24871 0-0.1568 0.0811-0.27575 0.0838-0.11895 0.23249-0.18383 0.15139-0.06488 0.34874-0.06488 0.18924 0 0.34604 0.0811 0.1595 0.0784 0.25142 0.22168t0.09192 0.32712h-0.10003q0-0.1595-0.0784-0.28116t-0.21357-0.18653q-0.13517-0.06759-0.30008-0.06759-0.14598 0-0.27304 0.04596t-0.20816 0.14058q-0.0784 0.09462-0.0784 0.2379 0 0.12976 0.0757 0.20816 0.07569 0.0757 0.19735 0.11625 0.12165 0.0406 0.34063 0.0865 0.22168 0.046 0.34333 0.0892 0.12436 0.0406 0.20816 0.13787 0.08651 0.0973 0.08651 0.27304 0 0.17573-0.09462 0.29738-0.09192 0.11895-0.24601 0.17842-0.15409 0.0595-0.33522 0.0595-0.22438 0-0.3947-0.0838t-0.26223-0.23519q-0.08921-0.1541-0.08921-0.35145h0.10002q0 0.17302 0.0757 0.30278 0.0784 0.12977 0.22438 0.20276 0.14598 0.0703 0.34604 0.0703 0.24871 0 0.41092-0.11895 0.16491-0.11895 0.16491-0.32441 0-0.14058-0.07029-0.21627-0.07029-0.0757-0.17842-0.10814-0.10543-0.0351-0.319-0.0784z"/>
  <path d="m54.368 101.44-0.07299 0.0649-0.21086-0.2406q-0.10273 0.0919-0.23249 0.14057-0.12706 0.0487-0.27034 0.0487-0.21087 0-0.38929-0.10273-0.17842-0.10543-0.28386-0.28385-0.10273-0.17843-0.10273-0.38929v-0.41092q0-0.21086 0.10273-0.38929 0.10543-0.17842 0.28386-0.28115 0.17842-0.10543 0.38929-0.10543 0.21086 0 0.38929 0.10543 0.17842 0.10273 0.28115 0.28115 0.10543 0.17843 0.10543 0.38929v0.41092q0 0.14598-0.05407 0.28115-0.05136 0.13247-0.14598 0.2379zm-0.11084-1.1733q0-0.18383-0.09192-0.33792-0.08921-0.1568-0.24601-0.24601-0.15409-0.09192-0.33792-0.09192t-0.34063 0.09192q-0.15409 0.08921-0.24601 0.24601-0.09192 0.15409-0.09192 0.33792v0.41092q0 0.18383 0.09192 0.34063 0.09192 0.15409 0.24601 0.24601 0.1568 0.0892 0.34063 0.0892 0.12165 0 0.23249-0.0405 0.11354-0.0433 0.20546-0.12166l-0.28386-0.3244 0.0757-0.0649 0.27845 0.31901q0.0784-0.0919 0.12165-0.20546 0.04596-0.11355 0.04596-0.2379z"/>
  <path d="m54.828 99.537h0.10003v1.1625q0 0.17843 0.08921 0.32982t0.2406 0.2406q0.15139 0.0892 0.32982 0.0892 0.17842 0 0.32981-0.0892t0.2406-0.2406q0.08921-0.15139 0.08921-0.32982v-1.1625h0.10003v1.1625q0 0.20546-0.10273 0.38118-0.10273 0.17302-0.27845 0.27575-0.17302 0.10273-0.37848 0.10273t-0.38118-0.10273q-0.17302-0.10273-0.27575-0.27575-0.10273-0.17572-0.10273-0.38118z"/>
  <path d="m57.537 99.537h0.10543l0.77317 1.8816h-0.10814l-0.25412-0.62179h-0.92727l-0.25682 0.62179h-0.10543zm-0.37036 1.1625h0.84616l-0.42443-1.0327z"/>
  <path d="m59.997 99.6q0.1622 0.07569 0.25412 0.22438 0.09462 0.14869 0.09462 0.32982 0 0.21086-0.12976 0.37847-0.12706 0.16491-0.32711 0.21898l0.4785 0.66774h-0.11895l-0.46228-0.64882-0.08651 3e-3h-0.67855v0.64612h-0.10003v-1.8816h0.7164q0.11895 0 0.20276 0.01622 0.08651 0.01352 0.1568 0.04596zm-0.27034 1.0733q0.14058 0 0.25953-0.0703t0.18924-0.18924q0.07029-0.11895 0.07029-0.25952 0-0.1568-0.08381-0.28386-0.0811-0.12706-0.22709-0.18924-0.10543-0.04325-0.29737-0.04325h-0.61638v1.0354z"/>
  <path d="m60.94 99.537h1.3247v0.10003h-1.2246v0.76235h1.0651v0.10003h-1.0651v0.81913h1.2246v0.10003h-1.3247z"/>
  <path d="m63.571 99.537q0.20546 0 0.37848 0.10273 0.17572 0.10273 0.27845 0.27845 0.10273 0.17302 0.10273 0.37848v0.36225q0 0.20546-0.10273 0.38118-0.10273 0.17302-0.27845 0.27575-0.17302 0.10273-0.37848 0.10273h-0.69477v-1.8816zm0.65963 0.75966q0-0.17843-0.08921-0.32982t-0.24331-0.2406q-0.15139-0.08921-0.32982-0.08921h-0.59205v1.6815h0.59204q0.17842 0 0.32982-0.0892 0.15409-0.0892 0.24331-0.2406 0.08921-0.15139 0.08921-0.32982z"/>
  <path d="m66.944 100.7q0 0.17843 0.08921 0.32982 0.09192 0.15139 0.24331 0.2406 0.15409 0.0892 0.33252 0.0892 0.18383 0 0.33252-0.073t0.23249-0.20276q0.08651-0.12976 0.08921-0.29196h0.09732q0 0.18653-0.10003 0.34063-0.09732 0.15139-0.27034 0.2406-0.17031 0.0865-0.38118 0.0865-0.20546 0-0.38118-0.10273t-0.27845-0.27575q-0.10273-0.17572-0.10273-0.38118v-0.44336q0-0.20545 0.10003-0.37847 0.10273-0.17572 0.27575-0.27845 0.17572-0.10273 0.38118-0.10273 0.20816 0 0.37848 0.08921 0.17302 0.08651 0.27304 0.2406 0.10003 0.15139 0.10003 0.33793h-0.09732q-0.0027-0.16221-0.08921-0.29197t-0.2352-0.20276q-0.14598-0.07299-0.32982-0.07299-0.17842 0-0.32982 0.08921-0.15139 0.08921-0.2406 0.2406t-0.08921 0.32981z"/>
  <path d="m70.202 99.537v0.10003h-0.56231v1.6815h0.56231v0.10003h-1.2192v-0.10003h0.5596v-1.6815h-0.5596v-0.10003z"/>
  <path d="m72 99.6q0.1622 0.07569 0.25412 0.22438 0.09462 0.14869 0.09462 0.32982 0 0.21086-0.12976 0.37847-0.12706 0.16491-0.32711 0.21898l0.4785 0.66774h-0.11895l-0.46228-0.64882-0.08651 3e-3h-0.67855v0.64612h-0.10003v-1.8816h0.7164q0.11895 0 0.20276 0.01622 0.08651 0.01352 0.1568 0.04596zm-0.27034 1.0733q0.14058 0 0.25953-0.0703t0.18924-0.18924q0.07029-0.11895 0.07029-0.25952 0-0.1568-0.0838-0.28386-0.0811-0.12706-0.22709-0.18924-0.10543-0.04325-0.29737-0.04325h-0.61638v1.0354z"/>
  <path d="m72.946 100.7q0 0.17843 0.08921 0.32982 0.09192 0.15139 0.24331 0.2406 0.15409 0.0892 0.33252 0.0892 0.18383 0 0.33252-0.073t0.23249-0.20276q0.08651-0.12976 0.08921-0.29196h0.09732q0 0.18653-0.10003 0.34063-0.09732 0.15139-0.27034 0.2406-0.17031 0.0865-0.38118 0.0865-0.20546 0-0.38118-0.10273t-0.27845-0.27575q-0.10273-0.17572-0.10273-0.38118v-0.44336q0-0.20545 0.10003-0.37847 0.10273-0.17572 0.27575-0.27845 0.17572-0.10273 0.38118-0.10273 0.20816 0 0.37848 0.08921 0.17302 0.08651 0.27304 0.2406 0.10003 0.15139 0.10003 0.33793h-0.09732q-0.0027-0.16221-0.08921-0.29197t-0.2352-0.20276q-0.14598-0.07299-0.32982-0.07299-0.17842 0-0.32982 0.08921t-0.2406 0.2406q-0.08921 0.15139-0.08921 0.32981z"/>
  <path d="m75.011 101.42v-1.8816h0.10003v1.7815h1.3111v0.10003z"/>
  <path d="m76.944 99.537h1.3247v0.10003h-1.2246v0.76235h1.0651v0.10003h-1.0651v0.81913h1.2246v0.10003h-1.3247z"/>
  <path d="m81.635 100.52q-0.22979-0.046-0.37577-0.10002-0.14328-0.0568-0.22708-0.15139-0.0811-0.0973-0.0811-0.24871 0-0.1568 0.0811-0.27575 0.0838-0.11895 0.23249-0.18383 0.15139-0.06488 0.34874-0.06488 0.18924 0 0.34604 0.0811 0.1595 0.0784 0.25142 0.22168t0.09192 0.32712h-0.10002q0-0.1595-0.0784-0.28116t-0.21357-0.18653q-0.13517-0.06759-0.30008-0.06759-0.14598 0-0.27304 0.04596t-0.20816 0.14058q-0.0784 0.09462-0.0784 0.2379 0 0.12976 0.0757 0.20816 0.0757 0.0757 0.19735 0.11625 0.12165 0.0406 0.34063 0.0865 0.22168 0.046 0.34333 0.0892 0.12436 0.0406 0.20816 0.13787 0.08651 0.0973 0.08651 0.27304 0 0.17573-0.09462 0.29738-0.09192 0.11895-0.24601 0.17842-0.15409 0.0595-0.33522 0.0595-0.22438 0-0.3947-0.0838t-0.26223-0.23519q-0.08921-0.1541-0.08921-0.35145h0.10003q0 0.17302 0.0757 0.30278 0.0784 0.12977 0.22438 0.20276 0.14598 0.0703 0.34604 0.0703 0.24871 0 0.41092-0.11895 0.16491-0.11895 0.16491-0.32441 0-0.14058-0.07029-0.21627-0.07029-0.0757-0.17842-0.10814-0.10543-0.0351-0.319-0.0784z"/>
  <path d="m82.946 99.537h1.3247v0.10003h-1.2246v0.76235h1.0651v0.10003h-1.0651v0.81913h1.2246v0.10003h-1.3247z"/>
  <path d="m84.949 100.7q0 0.17843 0.08921 0.32982 0.09192 0.15139 0.24331 0.2406 0.15409 0.0892 0.33252 0.0892 0.18383 0 0.33252-0.073t0.23249-0.20276q0.08651-0.12976 0.08921-0.29196h0.09732q0 0.18653-0.10003 0.34063-0.09732 0.15139-0.27034 0.2406-0.17031 0.0865-0.38118 0.0865-0.20546 0-0.38118-0.10273t-0.27845-0.27575q-0.10273-0.17572-0.10273-0.38118v-0.44336q0-0.20545 0.10002-0.37847 0.10273-0.17572 0.27575-0.27845 0.17572-0.10273 0.38118-0.10273 0.20816 0 0.37848 0.08921 0.17302 0.08651 0.27304 0.2406 0.10003 0.15139 0.10003 0.33793h-0.09732q-0.0027-0.16221-0.08921-0.29197t-0.2352-0.20276q-0.14598-0.07299-0.32981-0.07299-0.17842 0-0.32982 0.08921-0.15139 0.08921-0.2406 0.2406t-0.08921 0.32981z"/>
  <path d="m86.836 99.537h0.10003v1.1625q0 0.17843 0.08921 0.32982t0.2406 0.2406q0.15139 0.0892 0.32982 0.0892 0.17842 0 0.32981-0.0892t0.2406-0.2406q0.08921-0.15139 0.08921-0.32982v-1.1625h0.10003v1.1625q0 0.20546-0.10273 0.38118-0.10273 0.17302-0.27845 0.27575-0.17302 0.10273-0.37848 0.10273t-0.38118-0.10273q-0.17302-0.10273-0.27575-0.27575-0.10273-0.17572-0.10273-0.38118z"/>
  <path d="m90.004 99.6q0.1622 0.07569 0.25412 0.22438 0.09462 0.14869 0.09462 0.32982 0 0.21086-0.12976 0.37847-0.12706 0.16491-0.32711 0.21898l0.4785 0.66774h-0.11895l-0.46228-0.64882-0.08651 3e-3h-0.67855v0.64612h-0.10003v-1.8816h0.7164q0.11895 0 0.20276 0.01622 0.08651 0.01352 0.1568 0.04596zm-0.27034 1.0733q0.14058 0 0.25953-0.0703t0.18924-0.18924q0.07029-0.11895 0.07029-0.25952 0-0.1568-0.08381-0.28386-0.0811-0.12706-0.22708-0.18924-0.10543-0.04325-0.29737-0.04325h-0.61638v1.0354z"/>
  <path d="m92.208 99.537v0.10003h-0.56231v1.6815h0.56231v0.10003h-1.2192v-0.10003h0.5596v-1.6815h-0.5596v-0.10003z"/>
  <path d="m94.357 99.537v0.10003h-0.71099v1.7815h-0.09732v-1.7815h-0.711v-0.10003z"/>
  <path d="m94.933 99.537 0.66774 1.0057 0.66233-1.0057h0.11895l-0.73262 1.1111v0.77047h-0.10003v-0.77047l-0.73532-1.1111z"/>
 </g>
</svg>
