<?xml version="1.0" encoding="UTF-8"?>
<svg version="1.1" viewBox="0 0 350.04 109.73" xmlns="http://www.w3.org/2000/svg">
 <g transform="translate(-49.903 -307.56)">
  <g>
   <path d="m118.16 307.56v108h-4.608v-15.696c-2.8801 5.28-7.0561 9.504-12.528 12.672-5.4721 3.072-11.088 4.608-16.848 4.608-9.504 0-17.616-3.312-24.336-9.936-6.624-6.72-9.936-14.736-9.936-24.048-5e-6 -9.312 3.312-17.28 9.936-23.904 6.72-6.7199 14.832-10.08 24.336-10.08 5.952 7e-5 11.664 1.5841 17.136 4.752 5.5679 3.1681 9.6479 7.3921 12.24 12.672v-59.04h4.608m-63.648 75.744c-1e-5 8.064 2.88 15.072 8.64 21.024 5.76 5.856 12.672 8.784 20.736 8.784 8.16 0 15.168-2.928 21.024-8.784 5.9519-5.952 8.9279-12.96 8.928-21.024-7e-5 -8.064-2.9761-15.072-8.928-21.024-5.8561-6.0479-12.816-9.0719-20.88-9.072-8.064 6e-5 -15.024 2.9761-20.88 8.928-5.76 5.952-8.64 13.008-8.64 21.168"/>
   <path d="m165.44 417.14c-9.216 0-17.136-3.408-23.76-10.224-6.624-6.912-9.936-14.928-9.936-24.048-1e-5 -9.12 3.36-16.992 10.08-23.616 6.72-6.7199 14.784-10.08 24.192-10.08 9.504 7e-5 17.568 3.3601 24.192 10.08 6.7199 6.624 10.08 14.544 10.08 23.76-8e-5 9.12-3.2641 17.088-9.792 23.904-6.5281 6.816-14.448 10.224-23.76 10.224h-1.296m30.24-33.84c-7e-5 -8.16-2.9281-15.216-8.784-21.168-5.7601-5.9519-12.672-8.9279-20.736-8.928-8.064 6e-5 -15.072 3.0241-21.024 9.072-5.856 5.952-8.784 12.96-8.784 21.024-1e-5 8.064 2.928 15.072 8.784 21.024 5.952 5.856 12.96 8.784 21.024 8.784 8.16 0 15.12-2.928 20.88-8.784 5.7599-5.952 8.6399-12.96 8.64-21.024"/>
   <path d="m306.96 353.06c-2.496 6e-5 -4.704 0.81606-6.624 2.448-1.92 1.6321-2.88 3.6481-2.88 6.048-2e-5 2.4 1.056 4.608 3.168 6.624 2.208 2.016 4.8 3.888 7.776 5.616 3.072 1.632 6.144 3.408 9.216 5.328 3.072 1.92 5.664 4.368 7.776 7.344 2.208 2.976 3.312 6.384 3.312 10.224-5e-5 5.664-2.16 10.512-6.48 14.544-4.224 3.936-9.36 5.904-15.408 5.904-3.84 0-7.44-0.816-10.8-2.448-3.264-1.728-5.664-3.984-7.2-6.768v-6.912c3.648 8.064 9.504 12.096 17.568 12.096 4.992 0 9.168-1.536 12.528-4.608 3.456-3.072 5.184-6.48 5.184-10.224-4e-5 -3.84-1.104-7.056-3.312-9.648-2.112-2.592-4.704-4.8-7.776-6.624-3.072-1.824-6.144-3.6-9.216-5.328-2.976-1.824-5.568-3.984-7.776-6.48-2.112-2.592-3.168-5.568-3.168-8.928-1e-5 -3.4559 1.344-6.3359 4.032-8.64 2.784-2.3999 6.336-3.5999 10.656-3.6 4.32 7e-5 8.016 1.6801 11.088 5.04v5.904c-3.072-4.6079-6.96-6.9119-11.664-6.912"/>
   <path d="m374.75 417.29h-1.296c-9.12 0-17.088-3.408-23.904-10.224-6.72-6.912-10.08-14.928-10.08-24.048-1e-5 -9.12 3.36-16.992 10.08-23.616 6.72-6.7199 15.024-10.08 24.912-10.08 9.888 7e-5 18.384 3.9361 25.488 11.808l-45.216 44.64c6.24 4.992 12.24 7.488 18 7.488 5.76 0 10.896-1.296 15.408-3.888 4.6079-2.688 8.3999-6.24 11.376-10.656v7.344c-6.8161 7.488-15.072 11.232-24.768 11.232m-1.584-63.936c-7.584 6e-5 -14.352 2.9761-20.304 8.928-5.856 5.856-8.784 12.624-8.784 20.304-1e-5 7.68 2.544 14.4 7.632 20.16l41.904-41.616c-5.9521-5.1839-12.768-7.7759-20.448-7.776"/>
  </g>
  <path d="m275.13 378.92c3.3315 11.11-1.6636 22.845-12.521 29.414-10.858 6.5699-25.284 6.5876-36.163 0.0442-10.879-6.5433-15.912-18.265-12.617-29.384z" fill="#699dea" fill-opacity=".19608" stroke-width=".76585"/>
  <path d="m275.27 365.19-4.1731 2.0805c6.6025 13.238 2.3849 29.225-9.9011 37.511-12.286 8.2857-28.816 6.2666-38.747-4.7324-9.9312-10.999-10.177-27.532-0.58352-38.792l-3.5488-3.024c-11.086 13.011-10.796 32.239 0.67255 44.941 11.469 12.702 30.625 15.042 44.814 5.4734s19.097-28.161 11.468-43.458z" color="#000000" fill="#00f" style="-inkscape-stroke:none"/>
  <path transform="rotate(7.0378)" d="m287.24 313.54h4.663v45.211h-4.663z" fill="#00f"/>
 </g>
</svg>
